<svg width="158" height="120" viewBox="0 0 158 120" fill="none" xmlns="http://www.w3.org/2000/svg">
<rect width="158" height="120" rx="10" fill="white"/>
<path d="M103.226 30.6134H55.8202C55.3717 30.6134 54.9231 30.9874 54.9231 31.5105V87.6647C54.9231 88.1133 55.2971 88.5619 55.8202 88.5619L85.9536 88.5624C86.2524 88.5624 86.4772 88.1884 86.3275 87.8895C83.2617 82.9544 83.486 76.4493 87.4489 71.6639C88.2714 70.6171 89.2436 69.7946 90.2904 69.0466C90.6644 68.8223 90.4401 68.2986 90.0661 68.2986L59.1103 68.2992C59.0357 68.2992 58.9606 68.2246 58.9606 68.1495V34.427C58.9606 34.3524 59.0352 34.2773 59.1103 34.2773H99.8613C99.9359 34.2773 100.011 34.3519 100.011 34.427V66.3549C100.011 66.5792 100.161 66.7289 100.385 66.7289C101.432 66.8786 102.479 67.1775 103.525 67.626C103.824 67.7757 104.124 67.5514 104.124 67.252V31.5107C104.124 30.9876 103.75 30.6136 103.227 30.6136L103.226 30.6134Z" fill="#C8C8C8"/>
<path d="M103.226 30.6134H55.8202C55.3717 30.6134 54.9231 30.9874 54.9231 31.5105V87.6647C54.9231 88.1133 55.2971 88.5619 55.8202 88.5619L85.9536 88.5624C86.2524 88.5624 86.4772 88.1884 86.3275 87.8895C83.2617 82.9544 83.486 76.4493 87.4489 71.6639C88.2714 70.6171 89.2436 69.7946 90.2904 69.0466C90.6644 68.8223 90.4401 68.2986 90.0661 68.2986L59.1103 68.2992C59.0357 68.2992 58.9606 68.2246 58.9606 68.1495V34.427C58.9606 34.3524 59.0352 34.2773 59.1103 34.2773H99.8613C99.9359 34.2773 100.011 34.3519 100.011 34.427V66.3549C100.011 66.5792 100.161 66.7289 100.385 66.7289C101.432 66.8786 102.479 67.1775 103.525 67.626C103.824 67.7757 104.124 67.5514 104.124 67.252V31.5107C104.124 30.9876 103.75 30.6136 103.227 30.6136L103.226 30.6134Z" fill="#C8C8C8"/>
<path d="M74.3156 48.8327L79.9072 43.2411L86.5025 49.8364L80.9109 55.428L74.3156 48.8327Z" fill="#C8C8C8"/>
<path d="M83.1376 57.9668C82.6558 58.4485 81.8747 58.4485 81.3929 57.9668C80.9111 57.485 80.9111 56.7039 81.3929 56.2221L87.2978 50.3171C87.7796 49.8354 88.5607 49.8354 89.0425 50.3171C89.5243 50.7989 89.5243 51.58 89.0425 52.0618L83.1376 57.9668Z" fill="#C8C8C8"/>
<path d="M73.5198 48.349C73.0381 48.8307 72.2569 48.8307 71.7751 48.349C71.2934 47.8672 71.2934 47.0861 71.7751 46.6043L77.6801 40.6993C78.1618 40.2176 78.943 40.2176 79.4248 40.6993C79.9065 41.1811 79.9065 41.9622 79.4248 42.444L73.5198 48.349Z" fill="#C8C8C8"/>
<path d="M76.9646 51.481L78.2619 52.7782L68.8675 62.1722C68.5092 62.5305 67.9256 62.5277 67.5673 62.1694C67.3881 61.9902 67.2999 61.757 67.2999 61.5223C67.2999 61.2874 67.3909 61.0542 67.5701 60.875L76.9646 51.481Z" fill="#C8C8C8"/>
<path d="M74.9531 62.4289C74.9531 61.0946 76.0436 59.9958 77.3887 59.9958H89.134C90.4792 59.9958 91.5698 61.0946 91.5698 62.4289H74.9531Z" fill="#C8C8C8"/>
<path d="M105.245 71.9627C100.534 68.0744 93.5053 68.7478 89.6174 73.458C85.7291 78.1688 86.4025 85.1976 91.1128 89.0855C95.8236 92.9738 102.852 92.3005 106.74 87.5902C110.629 82.8799 109.956 75.8512 105.245 71.9627ZM103.151 74.5048C105.918 76.7482 106.74 80.5613 105.319 83.7017C105.245 83.8514 105.021 83.926 104.871 83.7763L93.73 74.58C93.5803 74.4303 93.5803 74.206 93.73 74.1314C96.5715 72.1871 100.385 72.2621 103.151 74.5049L103.151 74.5048ZM93.2065 86.6184C90.4401 84.3751 89.6176 80.562 91.0384 77.4215C91.113 77.2718 91.3372 77.1972 91.4869 77.3469L102.703 86.5438C102.853 86.6935 102.853 86.9178 102.703 86.9924C99.8613 88.9363 95.9736 88.8617 93.2066 86.6184H93.2065Z" fill="#C8C8C8"/>
</svg>
